<svg width="8.25in" height="6.125in" viewBox="0 0 8.25 6.125" xmlns="http://www.w3.org/2000/svg" version="1.1" preserveAspectRatio="xMidYMid meet"><g id="svgGroup" stroke-linecap="round" fill-rule="evenodd" font-size="9pt" stroke="#000" stroke-width="0.25mm" fill="none" style="stroke:#000;stroke-width:0.25mm;fill:none"><path d="M 0 3.125 L 0 4.14 L 0.236 4.14 L 0.236 5.11 L 0 5.11 L 0 6.125 L 1.015 6.125 L 1.015 5.889 L 1.985 5.889 L 1.985 6.125 L 3 6.125 L 3 5.11 L 2.764 5.11 L 2.764 4.14 L 3 4.14 L 3 3.125 L 0 3.125 Z" id="front_outsideCutPath" stroke="#FF0000" stroke-width="0.1" style="stroke:#FF0000;stroke-width:0.1" vector-effect="non-scaling-stroke"/><path d="M 1.937 4.852 L 1.889 4.852 L 1.889 4.644 Q 1.889 4.619 1.881 4.602 A 0.058 0.058 0 0 0 1.871 4.585 Q 1.856 4.57 1.829 4.567 A 0.129 0.129 0 0 0 1.815 4.566 A 0.147 0.147 0 0 0 1.787 4.568 Q 1.757 4.574 1.741 4.593 Q 1.72 4.618 1.718 4.673 A 0.311 0.311 0 0 0 1.718 4.683 L 1.718 4.852 L 1.669 4.852 L 1.669 4.531 L 1.708 4.531 L 1.716 4.574 L 1.719 4.574 A 0.098 0.098 0 0 1 1.757 4.539 A 0.118 0.118 0 0 1 1.761 4.538 A 0.132 0.132 0 0 1 1.807 4.525 A 0.159 0.159 0 0 1 1.821 4.525 A 0.192 0.192 0 0 1 1.853 4.527 Q 1.871 4.53 1.885 4.537 A 0.087 0.087 0 0 1 1.908 4.553 Q 1.93 4.574 1.936 4.615 A 0.212 0.212 0 0 1 1.937 4.642 L 1.937 4.852 Z M 1.003 4.531 L 1.003 4.568 L 0.921 4.568 L 0.921 4.852 L 0.873 4.852 L 0.873 4.568 L 0.815 4.568 L 0.815 4.546 L 0.873 4.529 L 0.873 4.511 A 0.197 0.197 0 0 1 0.877 4.466 Q 0.891 4.405 0.95 4.395 A 0.148 0.148 0 0 1 0.976 4.393 A 0.157 0.157 0 0 1 0.998 4.394 Q 1.009 4.396 1.021 4.399 A 0.315 0.315 0 0 1 1.036 4.403 L 1.023 4.442 A 0.236 0.236 0 0 0 1.005 4.437 Q 0.996 4.434 0.987 4.433 A 0.105 0.105 0 0 0 0.975 4.433 A 0.066 0.066 0 0 0 0.959 4.434 A 0.042 0.042 0 0 0 0.934 4.451 A 0.056 0.056 0 0 0 0.927 4.466 Q 0.921 4.483 0.921 4.51 L 0.921 4.531 L 1.003 4.531 Z M 2.185 4.811 L 2.185 4.849 Q 2.177 4.852 2.162 4.855 A 0.211 0.211 0 0 1 2.148 4.857 Q 2.14 4.857 2.134 4.857 Q 2.041 4.857 2.041 4.759 L 2.041 4.568 L 1.995 4.568 L 1.995 4.545 L 2.041 4.525 L 2.061 4.456 L 2.089 4.456 L 2.089 4.531 L 2.182 4.531 L 2.182 4.568 L 2.089 4.568 L 2.089 4.757 A 0.098 0.098 0 0 0 2.091 4.774 Q 2.092 4.784 2.096 4.791 A 0.047 0.047 0 0 0 2.103 4.802 A 0.045 0.045 0 0 0 2.131 4.817 A 0.065 0.065 0 0 0 2.141 4.817 A 0.16 0.16 0 0 0 2.164 4.816 A 0.144 0.144 0 0 0 2.166 4.815 A 0.263 0.263 0 0 0 2.173 4.814 Q 2.176 4.814 2.179 4.813 A 0.101 0.101 0 0 0 2.184 4.812 Z M 1.246 4.528 L 1.24 4.573 A 0.214 0.214 0 0 0 1.224 4.57 Q 1.217 4.569 1.21 4.569 A 0.114 0.114 0 0 0 1.205 4.569 A 0.084 0.084 0 0 0 1.142 4.596 A 0.115 0.115 0 0 0 1.138 4.601 A 0.111 0.111 0 0 0 1.111 4.663 A 0.148 0.148 0 0 0 1.11 4.679 L 1.11 4.852 L 1.062 4.852 L 1.062 4.531 L 1.102 4.531 L 1.107 4.59 L 1.11 4.59 A 0.164 0.164 0 0 1 1.128 4.564 A 0.125 0.125 0 0 1 1.153 4.542 A 0.097 0.097 0 0 1 1.208 4.525 A 0.223 0.223 0 0 1 1.228 4.526 A 0.163 0.163 0 0 1 1.246 4.528 Z M 1.584 4.691 Q 1.584 4.769 1.544 4.813 A 0.13 0.13 0 0 1 1.468 4.855 A 0.189 0.189 0 0 1 1.435 4.857 A 0.156 0.156 0 0 1 1.389 4.851 A 0.135 0.135 0 0 1 1.358 4.837 A 0.132 0.132 0 0 1 1.31 4.786 A 0.16 0.16 0 0 1 1.307 4.779 A 0.18 0.18 0 0 1 1.292 4.73 A 0.243 0.243 0 0 1 1.289 4.691 Q 1.289 4.631 1.311 4.591 A 0.134 0.134 0 0 1 1.328 4.568 Q 1.367 4.525 1.437 4.525 A 0.163 0.163 0 0 1 1.485 4.531 A 0.127 0.127 0 0 1 1.544 4.569 A 0.151 0.151 0 0 1 1.577 4.634 Q 1.583 4.656 1.584 4.683 A 0.285 0.285 0 0 1 1.584 4.691 Z M 1.339 4.691 A 0.246 0.246 0 0 0 1.341 4.726 Q 1.347 4.762 1.364 4.785 Q 1.388 4.817 1.436 4.817 A 0.113 0.113 0 0 0 1.466 4.813 A 0.079 0.079 0 0 0 1.508 4.785 Q 1.527 4.761 1.532 4.721 A 0.256 0.256 0 0 0 1.533 4.691 Q 1.533 4.651 1.523 4.624 A 0.1 0.1 0 0 0 1.508 4.598 A 0.08 0.08 0 0 0 1.459 4.568 A 0.123 0.123 0 0 0 1.435 4.566 A 0.116 0.116 0 0 0 1.407 4.569 A 0.077 0.077 0 0 0 1.363 4.597 A 0.101 0.101 0 0 0 1.348 4.628 Q 1.343 4.641 1.341 4.658 A 0.257 0.257 0 0 0 1.339 4.691 Z" id="front_labelLayer" stroke="#777777" fill="#777777" style="stroke:#777777;fill:#777777" vector-effect="non-scaling-stroke"/><path d="M 3.361 3.125 L 3.361 4.14 L 3.125 4.14 L 3.125 5.11 L 3.361 5.11 L 3.361 6.125 L 3.64 6.125 L 3.64 5.889 L 4.61 5.889 L 4.61 6.125 L 4.889 6.125 L 4.889 5.11 L 5.125 5.11 L 5.125 4.14 L 4.889 4.14 L 4.889 3.125 L 3.361 3.125 Z" id="left_outsideCutPath" stroke="#FF0000" stroke-width="0.1" style="stroke:#FF0000;stroke-width:0.1" vector-effect="non-scaling-stroke"/><path d="M 4.267 4.562 L 4.267 4.587 L 4.213 4.587 L 4.213 4.776 L 4.18 4.776 L 4.18 4.587 L 4.142 4.587 L 4.142 4.573 L 4.18 4.561 L 4.18 4.549 A 0.131 0.131 0 0 1 4.183 4.519 Q 4.193 4.479 4.232 4.471 A 0.099 0.099 0 0 1 4.249 4.47 Q 4.266 4.47 4.289 4.477 L 4.281 4.503 A 0.158 0.158 0 0 0 4.269 4.499 Q 4.262 4.498 4.257 4.497 A 0.07 0.07 0 0 0 4.249 4.497 A 0.044 0.044 0 0 0 4.238 4.498 A 0.028 0.028 0 0 0 4.222 4.509 A 0.038 0.038 0 0 0 4.217 4.519 Q 4.213 4.53 4.213 4.548 L 4.213 4.562 L 4.267 4.562 Z M 4.116 4.654 L 4.116 4.675 L 3.968 4.675 A 0.13 0.13 0 0 0 3.97 4.697 Q 3.973 4.709 3.977 4.718 A 0.061 0.061 0 0 0 3.987 4.732 A 0.059 0.059 0 0 0 4.018 4.75 A 0.089 0.089 0 0 0 4.038 4.752 A 0.171 0.171 0 0 0 4.102 4.739 A 0.196 0.196 0 0 0 4.106 4.737 L 4.106 4.766 A 0.195 0.195 0 0 1 4.089 4.773 A 0.149 0.149 0 0 1 4.074 4.777 A 0.136 0.136 0 0 1 4.06 4.779 Q 4.054 4.78 4.046 4.78 A 0.264 0.264 0 0 1 4.037 4.78 A 0.126 0.126 0 0 1 4.005 4.776 A 0.089 0.089 0 0 1 3.962 4.751 A 0.095 0.095 0 0 1 3.939 4.709 Q 3.935 4.694 3.935 4.677 A 0.185 0.185 0 0 1 3.934 4.671 A 0.17 0.17 0 0 1 3.938 4.637 Q 3.942 4.617 3.951 4.601 A 0.096 0.096 0 0 1 3.96 4.589 A 0.083 0.083 0 0 1 4.021 4.558 A 0.115 0.115 0 0 1 4.028 4.558 A 0.099 0.099 0 0 1 4.056 4.562 A 0.075 0.075 0 0 1 4.092 4.585 A 0.091 0.091 0 0 1 4.113 4.626 A 0.132 0.132 0 0 1 4.116 4.654 Z M 4.405 4.749 L 4.405 4.774 A 0.032 0.032 0 0 1 4.401 4.776 Q 4.396 4.777 4.389 4.778 Q 4.38 4.78 4.372 4.78 A 0.085 0.085 0 0 1 4.371 4.78 A 0.085 0.085 0 0 1 4.346 4.777 Q 4.309 4.765 4.309 4.715 L 4.309 4.587 L 4.278 4.587 L 4.278 4.572 L 4.309 4.558 L 4.322 4.512 L 4.341 4.512 L 4.341 4.562 L 4.403 4.562 L 4.403 4.587 L 4.341 4.587 L 4.341 4.713 Q 4.341 4.733 4.35 4.743 A 0.03 0.03 0 0 0 4.369 4.753 A 0.043 0.043 0 0 0 4.375 4.753 A 0.106 0.106 0 0 0 4.391 4.752 A 0.094 0.094 0 0 0 4.392 4.752 A 0.176 0.176 0 0 0 4.397 4.751 A 0.113 0.113 0 0 0 4.401 4.75 Z M 3.878 4.472 L 3.878 4.776 L 3.845 4.776 L 3.845 4.472 L 3.878 4.472 Z M 3.969 4.649 L 4.081 4.649 A 0.11 0.11 0 0 0 4.079 4.631 Q 4.078 4.621 4.075 4.614 A 0.05 0.05 0 0 0 4.067 4.602 A 0.044 0.044 0 0 0 4.04 4.586 A 0.067 0.067 0 0 0 4.028 4.585 A 0.064 0.064 0 0 0 4.01 4.588 A 0.049 0.049 0 0 0 3.987 4.602 Q 3.973 4.617 3.969 4.643 A 0.123 0.123 0 0 0 3.969 4.649 Z M 4.401 4.75 Q 4.403 4.75 4.404 4.749" id="left_labelLayer" stroke="#777777" fill="#777777" style="stroke:#777777;fill:#777777" vector-effect="non-scaling-stroke"/><path d="M 0 0 L 0 1.015 L 0.236 1.015 L 0.236 1.985 L 0 1.985 L 0 3 L 1.015 3 L 1.015 2.764 L 1.985 2.764 L 1.985 3 L 3 3 L 3 1.985 L 2.764 1.985 L 2.764 1.015 L 3 1.015 L 3 0 L 0 0 Z" id="back_outsideCutPath" stroke="#FF0000" stroke-width="0.1" style="stroke:#FF0000;stroke-width:0.1" vector-effect="non-scaling-stroke"/><path d="M 1.911 1.561 L 1.913 1.561 A 0.288 0.288 0 0 1 1.92 1.551 Q 1.928 1.54 1.94 1.527 A 1.046 1.046 0 0 1 1.951 1.514 L 2.055 1.404 L 2.113 1.404 L 1.983 1.541 L 2.122 1.725 L 2.063 1.725 L 1.95 1.573 L 1.913 1.605 L 1.913 1.725 L 1.865 1.725 L 1.865 1.269 L 1.913 1.269 L 1.913 1.511 A 0.324 0.324 0 0 1 1.913 1.52 Q 1.913 1.535 1.911 1.561 Z M 0.927 1.684 L 0.923 1.684 L 0.913 1.725 L 0.878 1.725 L 0.878 1.269 L 0.927 1.269 L 0.927 1.38 A 1.014 1.014 0 0 1 0.926 1.414 Q 0.926 1.43 0.924 1.445 A 0.612 0.612 0 0 1 0.924 1.447 L 0.927 1.447 Q 0.961 1.399 1.027 1.399 A 0.149 0.149 0 0 1 1.069 1.404 A 0.111 0.111 0 0 1 1.126 1.442 A 0.143 0.143 0 0 1 1.151 1.49 Q 1.157 1.51 1.159 1.534 A 0.312 0.312 0 0 1 1.161 1.564 Q 1.161 1.643 1.125 1.687 A 0.115 0.115 0 0 1 1.044 1.73 A 0.165 0.165 0 0 1 1.027 1.731 A 0.148 0.148 0 0 1 0.99 1.726 A 0.128 0.128 0 0 1 0.97 1.719 A 0.108 0.108 0 0 1 0.927 1.684 Z M 1.479 1.725 L 1.443 1.725 L 1.433 1.679 L 1.431 1.679 A 0.202 0.202 0 0 1 1.415 1.698 Q 1.399 1.713 1.383 1.72 A 0.112 0.112 0 0 1 1.36 1.727 Q 1.349 1.73 1.336 1.731 A 0.219 0.219 0 0 1 1.324 1.731 Q 1.276 1.731 1.249 1.706 A 0.08 0.08 0 0 1 1.225 1.664 A 0.122 0.122 0 0 1 1.222 1.636 A 0.084 0.084 0 0 1 1.27 1.557 Q 1.305 1.538 1.367 1.535 A 0.474 0.474 0 0 1 1.377 1.534 L 1.432 1.533 L 1.432 1.513 Q 1.432 1.489 1.426 1.474 A 0.054 0.054 0 0 0 1.415 1.457 A 0.049 0.049 0 0 0 1.395 1.444 Q 1.387 1.441 1.377 1.44 A 0.12 0.12 0 0 0 1.363 1.439 A 0.158 0.158 0 0 0 1.327 1.443 Q 1.31 1.447 1.292 1.455 A 0.326 0.326 0 0 0 1.273 1.463 L 1.258 1.426 A 0.224 0.224 0 0 1 1.301 1.408 A 0.255 0.255 0 0 1 1.31 1.406 Q 1.338 1.399 1.366 1.399 A 0.205 0.205 0 0 1 1.398 1.401 Q 1.414 1.403 1.427 1.409 A 0.083 0.083 0 0 1 1.452 1.424 A 0.077 0.077 0 0 1 1.471 1.455 Q 1.479 1.476 1.479 1.506 L 1.479 1.725 Z M 1.794 1.415 L 1.779 1.456 A 0.216 0.216 0 0 0 1.755 1.448 A 0.258 0.258 0 0 0 1.743 1.445 Q 1.727 1.442 1.714 1.441 A 0.108 0.108 0 0 0 1.71 1.441 A 0.108 0.108 0 0 0 1.666 1.449 Q 1.62 1.47 1.613 1.54 A 0.269 0.269 0 0 0 1.612 1.566 Q 1.612 1.605 1.622 1.632 A 0.101 0.101 0 0 0 1.636 1.657 A 0.077 0.077 0 0 0 1.686 1.687 A 0.118 0.118 0 0 0 1.707 1.688 A 0.204 0.204 0 0 0 1.763 1.68 A 0.251 0.251 0 0 0 1.789 1.671 L 1.789 1.714 A 0.138 0.138 0 0 1 1.755 1.726 Q 1.739 1.73 1.721 1.731 A 0.267 0.267 0 0 1 1.708 1.731 A 0.182 0.182 0 0 1 1.663 1.726 A 0.123 0.123 0 0 1 1.6 1.688 Q 1.567 1.651 1.562 1.587 A 0.294 0.294 0 0 1 1.562 1.567 Q 1.562 1.508 1.582 1.469 A 0.134 0.134 0 0 1 1.6 1.442 A 0.126 0.126 0 0 1 1.669 1.402 A 0.191 0.191 0 0 1 1.711 1.398 A 0.219 0.219 0 0 1 1.757 1.403 A 0.243 0.243 0 0 1 1.771 1.406 Q 1.784 1.41 1.793 1.415 Z M 1.02 1.439 A 0.137 0.137 0 0 0 0.994 1.442 Q 0.979 1.445 0.967 1.451 A 0.065 0.065 0 0 0 0.949 1.468 Q 0.929 1.493 0.927 1.548 A 0.375 0.375 0 0 0 0.927 1.564 A 0.322 0.322 0 0 0 0.928 1.597 Q 0.933 1.64 0.949 1.661 A 0.071 0.071 0 0 0 0.985 1.685 Q 0.997 1.689 1.012 1.69 A 0.156 0.156 0 0 0 1.022 1.69 A 0.097 0.097 0 0 0 1.049 1.686 A 0.07 0.07 0 0 0 1.088 1.657 A 0.112 0.112 0 0 0 1.102 1.628 Q 1.11 1.601 1.11 1.564 A 0.287 0.287 0 0 0 1.109 1.531 Q 1.104 1.495 1.091 1.473 A 0.081 0.081 0 0 0 1.088 1.47 A 0.071 0.071 0 0 0 1.043 1.442 A 0.112 0.112 0 0 0 1.02 1.439 Z M 1.431 1.596 L 1.431 1.567 L 1.382 1.569 Q 1.333 1.571 1.308 1.582 A 0.075 0.075 0 0 0 1.298 1.587 A 0.052 0.052 0 0 0 1.274 1.625 A 0.077 0.077 0 0 0 1.273 1.637 A 0.069 0.069 0 0 0 1.274 1.653 Q 1.278 1.668 1.289 1.677 A 0.053 0.053 0 0 0 1.308 1.687 Q 1.319 1.691 1.333 1.691 A 0.134 0.134 0 0 0 1.362 1.688 Q 1.382 1.683 1.397 1.672 A 0.081 0.081 0 0 0 1.405 1.666 A 0.081 0.081 0 0 0 1.427 1.625 A 0.124 0.124 0 0 0 1.431 1.597 Z" id="back_labelLayer" stroke="#777777" fill="#777777" style="stroke:#777777;fill:#777777" vector-effect="non-scaling-stroke"/><path d="M 3.361 0 L 3.361 1.015 L 3.125 1.015 L 3.125 1.985 L 3.361 1.985 L 3.361 3 L 3.64 3 L 3.64 2.764 L 4.61 2.764 L 4.61 3 L 4.889 3 L 4.889 1.985 L 5.125 1.985 L 5.125 1.015 L 4.889 1.015 L 4.889 0 L 3.361 0 Z" id="right_outsideCutPath" stroke="#FF0000" stroke-width="0.1" style="stroke:#FF0000;stroke-width:0.1" vector-effect="non-scaling-stroke"/><path d="M 4.374 1.604 L 4.341 1.604 L 4.341 1.465 A 0.092 0.092 0 0 0 4.34 1.451 Q 4.339 1.443 4.336 1.437 A 0.039 0.039 0 0 0 4.329 1.426 A 0.037 0.037 0 0 0 4.314 1.417 Q 4.309 1.415 4.301 1.414 A 0.086 0.086 0 0 0 4.292 1.413 A 0.098 0.098 0 0 0 4.274 1.415 Q 4.254 1.419 4.243 1.432 A 0.054 0.054 0 0 0 4.234 1.448 Q 4.228 1.463 4.227 1.485 A 0.209 0.209 0 0 0 4.227 1.492 L 4.227 1.604 L 4.195 1.604 L 4.195 1.3 L 4.227 1.3 L 4.227 1.392 Q 4.227 1.404 4.226 1.413 A 0.127 0.127 0 0 1 4.226 1.42 L 4.228 1.42 A 0.065 0.065 0 0 1 4.25 1.398 A 0.079 0.079 0 0 1 4.255 1.395 A 0.083 0.083 0 0 1 4.282 1.387 A 0.105 0.105 0 0 1 4.295 1.386 A 0.132 0.132 0 0 1 4.317 1.388 Q 4.34 1.392 4.354 1.405 A 0.056 0.056 0 0 1 4.368 1.427 Q 4.371 1.436 4.373 1.447 A 0.14 0.14 0 0 1 4.374 1.464 L 4.374 1.604 Z M 4.077 1.39 L 4.151 1.39 L 4.151 1.41 L 4.111 1.415 A 0.053 0.053 0 0 1 4.116 1.422 Q 4.119 1.427 4.121 1.433 A 0.062 0.062 0 0 1 4.125 1.448 A 0.08 0.08 0 0 1 4.125 1.458 A 0.074 0.074 0 0 1 4.122 1.481 A 0.06 0.06 0 0 1 4.104 1.508 A 0.072 0.072 0 0 1 4.076 1.523 Q 4.062 1.527 4.045 1.527 A 0.104 0.104 0 0 1 4.033 1.526 A 0.088 0.088 0 0 1 4.027 1.525 A 0.058 0.058 0 0 0 4.018 1.531 Q 4.013 1.535 4.01 1.54 A 0.024 0.024 0 0 0 4.006 1.553 A 0.017 0.017 0 0 0 4.007 1.558 A 0.014 0.014 0 0 0 4.013 1.565 A 0.023 0.023 0 0 0 4.018 1.568 Q 4.024 1.569 4.032 1.57 A 0.123 0.123 0 0 0 4.038 1.57 L 4.076 1.57 A 0.133 0.133 0 0 1 4.096 1.571 Q 4.107 1.573 4.115 1.576 A 0.059 0.059 0 0 1 4.129 1.585 A 0.047 0.047 0 0 1 4.147 1.615 A 0.071 0.071 0 0 1 4.148 1.627 A 0.07 0.07 0 0 1 4.144 1.651 Q 4.138 1.669 4.121 1.681 A 0.078 0.078 0 0 1 4.12 1.681 Q 4.091 1.7 4.036 1.7 A 0.182 0.182 0 0 1 4.012 1.698 Q 4 1.697 3.99 1.693 A 0.075 0.075 0 0 1 3.972 1.684 A 0.052 0.052 0 0 1 3.955 1.666 Q 3.95 1.656 3.949 1.644 A 0.068 0.068 0 0 1 3.949 1.64 Q 3.949 1.621 3.961 1.606 A 0.057 0.057 0 0 1 3.981 1.592 A 0.08 0.08 0 0 1 3.997 1.587 A 0.034 0.034 0 0 1 3.984 1.577 A 0.04 0.04 0 0 1 3.983 1.576 A 0.03 0.03 0 0 1 3.977 1.559 A 0.037 0.037 0 0 1 3.977 1.557 A 0.037 0.037 0 0 1 3.979 1.545 A 0.033 0.033 0 0 1 3.983 1.537 A 0.046 0.046 0 0 1 3.99 1.53 Q 3.993 1.527 3.997 1.524 A 0.102 0.102 0 0 1 4.003 1.52 A 0.057 0.057 0 0 1 3.979 1.5 A 0.07 0.07 0 0 1 3.976 1.497 A 0.067 0.067 0 0 1 3.966 1.464 A 0.082 0.082 0 0 1 3.966 1.459 A 0.094 0.094 0 0 1 3.968 1.437 A 0.062 0.062 0 0 1 3.987 1.405 A 0.069 0.069 0 0 1 4.013 1.39 Q 4.028 1.386 4.047 1.386 A 0.124 0.124 0 0 1 4.063 1.387 A 0.095 0.095 0 0 1 4.077 1.39 Z M 4.539 1.577 L 4.539 1.602 A 0.032 0.032 0 0 1 4.535 1.603 Q 4.53 1.605 4.523 1.606 Q 4.514 1.608 4.506 1.608 A 0.085 0.085 0 0 1 4.505 1.608 A 0.085 0.085 0 0 1 4.48 1.604 Q 4.443 1.593 4.443 1.542 L 4.443 1.415 L 4.412 1.415 L 4.412 1.399 L 4.443 1.386 L 4.456 1.34 L 4.475 1.34 L 4.475 1.39 L 4.537 1.39 L 4.537 1.415 L 4.475 1.415 L 4.475 1.541 Q 4.475 1.56 4.484 1.571 A 0.03 0.03 0 0 0 4.503 1.581 A 0.043 0.043 0 0 0 4.509 1.581 A 0.106 0.106 0 0 0 4.525 1.58 A 0.094 0.094 0 0 0 4.526 1.58 A 0.176 0.176 0 0 0 4.531 1.579 A 0.113 0.113 0 0 0 4.535 1.578 Z M 3.834 1.388 L 3.83 1.418 A 0.143 0.143 0 0 0 3.82 1.416 Q 3.815 1.416 3.81 1.416 A 0.076 0.076 0 0 0 3.807 1.415 Q 3.781 1.415 3.762 1.437 A 0.074 0.074 0 0 0 3.744 1.478 A 0.098 0.098 0 0 0 3.744 1.489 L 3.744 1.604 L 3.711 1.604 L 3.711 1.39 L 3.738 1.39 L 3.742 1.429 L 3.743 1.429 A 0.109 0.109 0 0 1 3.756 1.412 A 0.084 0.084 0 0 1 3.772 1.397 A 0.065 0.065 0 0 1 3.809 1.386 A 0.149 0.149 0 0 1 3.822 1.387 A 0.109 0.109 0 0 1 3.834 1.388 Z M 3.907 1.39 L 3.907 1.604 L 3.875 1.604 L 3.875 1.39 L 3.907 1.39 Z M 4.066 1.599 L 4.027 1.599 A 0.075 0.075 0 0 0 4.013 1.6 Q 4.001 1.602 3.992 1.61 A 0.034 0.034 0 0 0 3.981 1.629 A 0.052 0.052 0 0 0 3.98 1.64 A 0.033 0.033 0 0 0 3.982 1.652 Q 3.985 1.66 3.993 1.665 A 0.038 0.038 0 0 0 3.995 1.666 Q 4.009 1.675 4.037 1.675 Q 4.073 1.675 4.093 1.665 A 0.054 0.054 0 0 0 4.097 1.663 A 0.047 0.047 0 0 0 4.108 1.654 A 0.035 0.035 0 0 0 4.117 1.63 Q 4.117 1.619 4.113 1.612 A 0.02 0.02 0 0 0 4.106 1.606 Q 4.095 1.599 4.066 1.599 Z M 3.998 1.458 Q 3.998 1.481 4.01 1.492 A 0.042 0.042 0 0 0 4.027 1.502 Q 4.034 1.503 4.041 1.504 A 0.083 0.083 0 0 0 4.046 1.504 A 0.071 0.071 0 0 0 4.064 1.502 Q 4.085 1.496 4.091 1.475 A 0.066 0.066 0 0 0 4.093 1.458 A 0.07 0.07 0 0 0 4.091 1.439 Q 4.083 1.41 4.045 1.41 Q 4.022 1.41 4.01 1.422 A 0.039 0.039 0 0 0 4.001 1.438 Q 3.999 1.444 3.998 1.451 A 0.085 0.085 0 0 0 3.998 1.458 Z M 3.872 1.332 Q 3.872 1.321 3.877 1.316 Q 3.883 1.31 3.891 1.31 Q 3.899 1.31 3.904 1.316 Q 3.909 1.32 3.91 1.328 A 0.037 0.037 0 0 1 3.91 1.332 Q 3.91 1.343 3.904 1.348 Q 3.899 1.354 3.891 1.354 A 0.021 0.021 0 0 1 3.884 1.352 A 0.018 0.018 0 0 1 3.877 1.348 A 0.017 0.017 0 0 1 3.873 1.341 Q 3.872 1.337 3.872 1.332 Z M 4.535 1.578 Q 4.537 1.578 4.538 1.577" id="right_labelLayer" stroke="#777777" fill="#777777" style="stroke:#777777;fill:#777777" vector-effect="non-scaling-stroke"/><path d="M 5.486 4.361 L 5.486 4.64 L 5.25 4.64 L 5.25 5.61 L 5.486 5.61 L 5.486 5.889 L 6.265 5.889 L 6.265 6.125 L 7.235 6.125 L 7.235 5.889 L 8.014 5.889 L 8.014 5.61 L 8.25 5.61 L 8.25 4.64 L 8.014 4.64 L 8.014 4.361 L 7.235 4.361 L 7.235 4.125 L 6.265 4.125 L 6.265 4.361 L 5.486 4.361 Z" id="bottom_outsideCutPath" stroke="#FF0000" stroke-width="0.1" style="stroke:#FF0000;stroke-width:0.1" vector-effect="non-scaling-stroke"/><path d="M 7.408 5.275 L 7.376 5.275 L 7.376 5.136 Q 7.376 5.12 7.371 5.109 A 0.039 0.039 0 0 0 7.365 5.097 A 0.034 0.034 0 0 0 7.349 5.087 Q 7.343 5.085 7.336 5.085 A 0.075 0.075 0 0 0 7.331 5.085 A 0.083 0.083 0 0 0 7.314 5.086 Q 7.296 5.09 7.286 5.102 Q 7.276 5.114 7.273 5.136 A 0.143 0.143 0 0 0 7.271 5.155 L 7.271 5.275 L 7.239 5.275 L 7.239 5.136 Q 7.239 5.12 7.235 5.109 A 0.039 0.039 0 0 0 7.228 5.097 Q 7.219 5.086 7.2 5.085 A 0.076 0.076 0 0 0 7.194 5.085 A 0.081 0.081 0 0 0 7.177 5.086 Q 7.167 5.088 7.159 5.093 A 0.042 0.042 0 0 0 7.149 5.103 A 0.054 0.054 0 0 0 7.141 5.118 Q 7.136 5.133 7.135 5.155 A 0.226 0.226 0 0 0 7.135 5.163 L 7.135 5.275 L 7.103 5.275 L 7.103 5.061 L 7.129 5.061 L 7.134 5.09 L 7.136 5.09 A 0.064 0.064 0 0 1 7.162 5.066 A 0.077 0.077 0 0 1 7.192 5.057 A 0.093 0.093 0 0 1 7.199 5.057 A 0.106 0.106 0 0 1 7.223 5.06 Q 7.238 5.063 7.248 5.071 A 0.055 0.055 0 0 1 7.265 5.093 L 7.266 5.093 A 0.068 0.068 0 0 1 7.292 5.068 A 0.081 0.081 0 0 1 7.294 5.067 A 0.082 0.082 0 0 1 7.324 5.058 A 0.102 0.102 0 0 1 7.336 5.057 A 0.113 0.113 0 0 1 7.356 5.059 Q 7.377 5.063 7.39 5.076 Q 7.403 5.089 7.407 5.115 A 0.149 0.149 0 0 1 7.408 5.135 L 7.408 5.275 Z M 6.124 5.247 L 6.122 5.247 L 6.115 5.275 L 6.092 5.275 L 6.092 4.971 L 6.124 4.971 L 6.124 5.045 Q 6.124 5.069 6.123 5.088 A 0.41 0.41 0 0 1 6.123 5.089 L 6.124 5.089 A 0.074 0.074 0 0 1 6.178 5.058 A 0.111 0.111 0 0 1 6.192 5.057 A 0.099 0.099 0 0 1 6.219 5.061 A 0.074 0.074 0 0 1 6.257 5.086 A 0.096 0.096 0 0 1 6.274 5.118 Q 6.278 5.132 6.28 5.148 A 0.208 0.208 0 0 1 6.28 5.168 A 0.19 0.19 0 0 1 6.278 5.2 Q 6.273 5.23 6.257 5.25 A 0.077 0.077 0 0 1 6.202 5.278 A 0.11 0.11 0 0 1 6.192 5.279 Q 6.171 5.279 6.153 5.271 A 0.072 0.072 0 0 1 6.124 5.247 Z M 6.677 5.248 L 6.677 5.273 A 0.032 0.032 0 0 1 6.673 5.275 Q 6.669 5.276 6.662 5.277 Q 6.652 5.279 6.644 5.279 A 0.085 0.085 0 0 1 6.643 5.279 A 0.085 0.085 0 0 1 6.618 5.276 Q 6.581 5.264 6.581 5.213 L 6.581 5.086 L 6.55 5.086 L 6.55 5.071 L 6.581 5.057 L 6.595 5.011 L 6.613 5.011 L 6.613 5.061 L 6.676 5.061 L 6.676 5.086 L 6.613 5.086 L 6.613 5.212 Q 6.613 5.231 6.623 5.242 A 0.03 0.03 0 0 0 6.641 5.252 A 0.043 0.043 0 0 0 6.648 5.252 A 0.106 0.106 0 0 0 6.663 5.251 A 0.094 0.094 0 0 0 6.664 5.251 A 0.176 0.176 0 0 0 6.669 5.25 A 0.113 0.113 0 0 0 6.673 5.249 Z M 6.818 5.248 L 6.818 5.273 A 0.032 0.032 0 0 1 6.815 5.275 Q 6.81 5.276 6.803 5.277 Q 6.793 5.279 6.785 5.279 A 0.085 0.085 0 0 1 6.784 5.279 A 0.085 0.085 0 0 1 6.759 5.276 Q 6.722 5.264 6.722 5.213 L 6.722 5.086 L 6.692 5.086 L 6.692 5.071 L 6.722 5.057 L 6.736 5.011 L 6.755 5.011 L 6.755 5.061 L 6.817 5.061 L 6.817 5.086 L 6.755 5.086 L 6.755 5.212 Q 6.755 5.231 6.764 5.242 A 0.03 0.03 0 0 0 6.782 5.252 A 0.043 0.043 0 0 0 6.789 5.252 A 0.106 0.106 0 0 0 6.805 5.251 A 0.094 0.094 0 0 0 6.806 5.251 A 0.176 0.176 0 0 0 6.81 5.25 A 0.113 0.113 0 0 0 6.814 5.249 Z M 6.519 5.2 A 0.167 0.167 0 0 0 6.522 5.168 A 0.191 0.191 0 0 0 6.522 5.163 Q 6.521 5.115 6.495 5.087 A 0.085 0.085 0 0 0 6.456 5.061 A 0.109 0.109 0 0 0 6.424 5.057 A 0.126 0.126 0 0 0 6.401 5.059 A 0.086 0.086 0 0 0 6.351 5.086 A 0.09 0.09 0 0 0 6.34 5.101 Q 6.325 5.128 6.325 5.168 A 0.162 0.162 0 0 0 6.327 5.194 A 0.12 0.12 0 0 0 6.337 5.227 A 0.107 0.107 0 0 0 6.34 5.231 A 0.088 0.088 0 0 0 6.372 5.265 Q 6.394 5.279 6.423 5.279 A 0.126 0.126 0 0 0 6.445 5.277 A 0.086 0.086 0 0 0 6.496 5.25 A 0.09 0.09 0 0 0 6.506 5.235 Q 6.515 5.22 6.519 5.2 Z M 7.043 5.2 A 0.167 0.167 0 0 0 7.046 5.168 A 0.191 0.191 0 0 0 7.046 5.163 Q 7.045 5.115 7.019 5.087 A 0.085 0.085 0 0 0 6.98 5.061 A 0.109 0.109 0 0 0 6.948 5.057 A 0.126 0.126 0 0 0 6.925 5.059 A 0.086 0.086 0 0 0 6.875 5.086 A 0.09 0.09 0 0 0 6.864 5.101 Q 6.849 5.128 6.849 5.168 A 0.162 0.162 0 0 0 6.851 5.194 A 0.12 0.12 0 0 0 6.861 5.227 A 0.107 0.107 0 0 0 6.864 5.231 A 0.088 0.088 0 0 0 6.896 5.265 Q 6.918 5.279 6.947 5.279 A 0.126 0.126 0 0 0 6.969 5.277 A 0.086 0.086 0 0 0 7.02 5.25 A 0.09 0.09 0 0 0 7.03 5.235 Q 7.039 5.22 7.043 5.2 Z M 6.366 5.213 A 0.068 0.068 0 0 0 6.375 5.23 A 0.053 0.053 0 0 0 6.41 5.251 A 0.081 0.081 0 0 0 6.423 5.252 A 0.075 0.075 0 0 0 6.443 5.249 A 0.052 0.052 0 0 0 6.472 5.23 A 0.07 0.07 0 0 0 6.483 5.209 Q 6.486 5.2 6.487 5.188 A 0.171 0.171 0 0 0 6.488 5.168 A 0.162 0.162 0 0 0 6.487 5.145 Q 6.485 5.133 6.481 5.123 A 0.067 0.067 0 0 0 6.472 5.106 Q 6.455 5.085 6.423 5.085 A 0.077 0.077 0 0 0 6.404 5.087 A 0.052 0.052 0 0 0 6.375 5.105 Q 6.363 5.121 6.36 5.146 A 0.171 0.171 0 0 0 6.359 5.168 Q 6.359 5.194 6.366 5.213 Z M 6.89 5.213 A 0.068 0.068 0 0 0 6.899 5.23 A 0.053 0.053 0 0 0 6.934 5.251 A 0.081 0.081 0 0 0 6.947 5.252 A 0.075 0.075 0 0 0 6.967 5.249 A 0.052 0.052 0 0 0 6.996 5.23 A 0.07 0.07 0 0 0 7.007 5.209 Q 7.01 5.2 7.011 5.188 A 0.171 0.171 0 0 0 7.012 5.168 A 0.162 0.162 0 0 0 7.011 5.145 Q 7.009 5.133 7.006 5.123 A 0.067 0.067 0 0 0 6.996 5.106 Q 6.979 5.085 6.947 5.085 A 0.077 0.077 0 0 0 6.928 5.087 A 0.052 0.052 0 0 0 6.899 5.105 Q 6.887 5.121 6.884 5.146 A 0.171 0.171 0 0 0 6.883 5.168 Q 6.883 5.194 6.89 5.213 Z M 6.152 5.093 A 0.043 0.043 0 0 0 6.139 5.104 A 0.056 0.056 0 0 0 6.131 5.119 Q 6.124 5.137 6.124 5.168 A 0.214 0.214 0 0 0 6.125 5.19 Q 6.128 5.212 6.135 5.226 A 0.049 0.049 0 0 0 6.139 5.232 A 0.047 0.047 0 0 0 6.163 5.248 Q 6.174 5.252 6.188 5.252 A 0.065 0.065 0 0 0 6.206 5.249 A 0.047 0.047 0 0 0 6.232 5.23 Q 6.247 5.208 6.247 5.167 A 0.192 0.192 0 0 0 6.246 5.146 Q 6.243 5.122 6.234 5.107 A 0.054 0.054 0 0 0 6.232 5.105 A 0.047 0.047 0 0 0 6.202 5.086 A 0.075 0.075 0 0 0 6.187 5.085 Q 6.165 5.085 6.152 5.093 Z M 6.673 5.249 Q 6.675 5.249 6.677 5.248 M 6.814 5.249 Q 6.816 5.249 6.818 5.248" id="bottom_labelLayer" stroke="#777777" fill="#777777" style="stroke:#777777;fill:#777777" vector-effect="non-scaling-stroke"/></g></svg>